<svg xmlns="http://www.w3.org/2000/svg" width="15" height="15">
    <path fill="#FFF" fill-rule="evenodd" d="M14.425 4.592c-.177-.418-.397-.823-.653-1.202-.255-.373-.545-.724-.866-1.045-.319-.318-.673-.607-1.048-.861-.379-.256-.785-.475-1.206-.652-.426-.178-.875-.319-1.332-.41C8.854.324 8.374.277 7.895.277c-.482 0-.962.047-1.427.145-.456.091-.905.232-1.334.41-.42.177-.826.396-1.205.652-.373.254-.727.543-1.049.861-.32.321-.612.672-.864 1.045-.255.379-.476.784-.655 1.202-.18.425-.319.874-.413 1.328-.095.463-.143.943-.143 1.419 0 .481.048.96.143 1.424.094.453.233.901.413 1.329.179.416.4.822.655 1.199.252.375.544.725.864 1.045.322.32.676.609 1.049.859.379.258.785.476 1.205.654.429.18.878.319 1.334.412.465.094.945.143 1.427.143.479 0 .959-.049 1.425-.143.457-.093.906-.232 1.332-.412.421-.178.827-.396 1.206-.654.375-.25.729-.539 1.048-.859.321-.32.611-.67.866-1.045.256-.377.476-.783.653-1.199.181-.428.322-.876.414-1.329.097-.464.145-.943.145-1.424 0-.476-.048-.956-.145-1.419-.092-.454-.233-.903-.414-1.328zM7.893 1.308c1.534 0 2.934.569 4 1.506-.017.024-.878 1.33-3.163 2.184-1.035-1.895-2.172-3.401-2.262-3.52.457-.109.935-.17 1.425-.17zm-1.449.176l-.002.002s-.008.002-.017.002c.005 0 .011-.002.019-.004zm-1.134.403c.082.105 1.201 1.618 2.248 3.474-2.906.769-5.429.74-5.589.736.393-1.869 1.654-3.417 3.341-4.21zm-1.921 9.482l.002.002-.002-.002zm-.001 0c-.963-1.069-1.549-2.478-1.549-4.03 0-.062.004-.127.006-.189.107.002 3.097.07 6.215-.859.173.337.339.681.493 1.025l-.24.07c-3.265 1.053-4.923 3.979-4.925 3.983zm.785.729l-.135-.106c.043.035.094.06.139.096l-.004.01zm3.722 1.275c-1.406 0-2.691-.487-3.718-1.285.045-.096 1.226-2.54 4.747-3.76l.04-.014c.851 2.207 1.205 4.053 1.293 4.58-.725.309-1.526.479-2.362.479zm3.381-1.03c-.06-.363-.383-2.132-1.176-4.308 1.954-.313 3.647.222 3.771.264-.269 1.679-1.234 3.13-2.595 4.044zM9.729 7.084c-.042-.104-.085-.207-.13-.313-.127-.295-.26-.587-.403-.875 2.393-.97 3.363-2.371 3.373-2.386.851 1.027 1.363 2.339 1.377 3.769-.088-.018-2.136-.455-4.217-.195z"/>
</svg>
