<svg xmlns="http://www.w3.org/2000/svg" width="16" height="15">
    <path fill="#FFF" fill-rule="evenodd" d="M13.155 3.509V5.43h-.964V3.509h-1.926V2.55h1.926V.628h.964V2.55h1.93v.959h-1.93zM7.897 1.413c.776.441 1.186 1.351 1.186 2.353 0 .922-.512 1.662-1.233 2.227-.707.549-.839.779-.839 1.244 0 .398.841.994 1.228 1.283 1.35 1.008 1.623 1.643 1.623 2.904 0 1.575-1.701 3.139-4.469 3.139-2.428 0-4.478-.984-4.478-2.557 0-1.599 1.701-3.263 4.129-3.263.264 0 .507-.006.758-.006-.333-.322-.601-.602-.601-1.088 0-.287.092-.562.222-.81-.133.009-.268.015-.404.015-1.997 0-3.159-1.394-3.159-3.146C1.86 1.993 3.63.436 5.75.436h4.179l-.934.977H7.897zM5.594 9.235c-1.679-.02-3.101 1.057-3.101 2.303 0 1.271 1.212 2.328 2.891 2.328 2.359 0 3.181-.992 3.181-2.264 0-.154-.019-.302-.053-.447-.185-.721-.919-1.115-1.831-1.746-.33-.107-.696-.17-1.087-.174zm1.81-5.404C7.21 2.356 6.247 1.147 5.12 1.112c-1.126-.033-1.883 1.096-1.686 2.57.193 1.473 1.263 2.502 2.39 2.537 1.126.034 1.775-.915 1.58-2.388z"/>
</svg>
