<svg xmlns="http://www.w3.org/2000/svg" width="15" height="12">
    <path fill="#FFF" fill-rule="evenodd" d="M.833 10.164c1.287.822 2.814 1.301 4.459 1.301 5.35 0 8.277-4.416 8.277-8.247 0-.124-.003-.25-.01-.374.571-.409 1.063-.919 1.453-1.501-.522.233-1.082.387-1.671.456.601-.356 1.06-.926 1.279-1.602-.562.332-1.186.572-1.848.703-.529-.562-1.287-.914-2.123-.914-1.607 0-2.908 1.297-2.908 2.897 0 .226.025.447.074.66C5.398 3.421 3.253 2.269 1.819.515c-.25.43-.393.926-.393 1.457 0 1.006.513 1.893 1.294 2.412-.478-.013-.926-.144-1.319-.361v.035c0 1.404 1.004 2.577 2.334 2.842-.243.068-.501.102-.766.102-.188 0-.37-.018-.547-.051.37 1.152 1.444 1.99 2.717 2.012-.996.777-2.248 1.24-3.613 1.24-.235 0-.465-.012-.693-.039z"/>
</svg>
